<svg width="25" height="23" viewBox="0 0 25 23" fill="none" xmlns="http://www.w3.org/2000/svg">
<path d="M23.8397 3.4895C24.1548 3.4895 24.4197 3.61841 24.6346 3.87622C24.8494 4.13403 24.9139 4.42049 24.8279 4.7356L22.9803 13.6731C22.923 13.9023 22.8012 14.0956 22.6151 14.2532C22.4289 14.4107 22.2212 14.4895 21.992 14.4895H7.72638L8.242 17.2395H20.9608C21.505 17.2395 21.8488 17.4973 21.992 18.0129C22.5363 18.5572 22.8084 19.2161 22.8084 19.9895C22.8084 20.7629 22.5434 21.4146 22.0135 21.9446C21.4835 22.4745 20.8318 22.7395 20.0584 22.7395C19.285 22.7395 18.6333 22.4745 18.1033 21.9446C17.5734 21.4146 17.3084 20.7629 17.3084 19.9895C17.3084 19.5025 17.4373 19.0442 17.6951 18.6145H11.4217C11.6795 19.0442 11.8084 19.5025 11.8084 19.9895C11.8084 20.7629 11.5434 21.4146 11.0135 21.9446C10.4835 22.4745 9.83185 22.7395 9.05841 22.7395C8.28497 22.7395 7.63328 22.4745 7.10333 21.9446C6.57338 21.4146 6.30841 20.7629 6.30841 19.9895C6.30841 19.2734 6.5519 18.6575 7.03888 18.1418L4.03107 2.1145H0.636536C0.292786 2.1145 0.120911 1.94263 0.120911 1.59888V1.25513C0.120911 0.911377 0.292786 0.739502 0.636536 0.739502H4.28888C4.54669 0.739502 4.7687 0.818277 4.9549 0.97583C5.14109 1.13338 5.26284 1.34106 5.32013 1.59888L5.66388 3.4895H23.8397ZM10.0252 20.9563C10.0252 20.9563 10.0932 20.8883 10.2293 20.7522C10.3654 20.6161 10.4334 20.3619 10.4334 19.9895C10.4334 19.6171 10.2973 19.2948 10.0252 19.0227C9.75307 18.7506 9.43081 18.6145 9.05841 18.6145C8.68602 18.6145 8.36375 18.7506 8.09161 19.0227C7.81948 19.2948 7.68341 19.6171 7.68341 19.9895C7.68341 20.3619 7.81948 20.6842 8.09161 20.9563C8.36375 21.2284 8.68602 21.3645 9.05841 21.3645C9.43081 21.3645 9.75307 21.2284 10.0252 20.9563ZM19.0916 20.9563C19.0916 20.9563 19.1596 21.0243 19.2957 21.1604C19.4318 21.2965 19.686 21.3645 20.0584 21.3645C20.4308 21.3645 20.7531 21.2284 21.0252 20.9563C21.2973 20.6842 21.4334 20.3619 21.4334 19.9895C21.4334 19.6171 21.2973 19.2948 21.0252 19.0227C20.7531 18.7506 20.4308 18.6145 20.0584 18.6145C19.686 18.6145 19.3637 18.7506 19.0916 19.0227C18.8195 19.2948 18.6834 19.6171 18.6834 19.9895C18.6834 20.3619 18.8195 20.6842 19.0916 20.9563ZM21.6912 13.1145L23.41 4.8645H5.92169L7.46857 13.1145H21.6912Z" fill="black"/>
</svg>
