<svg width="21" height="23" viewBox="0 0 21 23" fill="none" xmlns="http://www.w3.org/2000/svg">
<path d="M14.3531 12.6145C15.9286 12.6145 17.2821 13.1803 18.4136 14.3118C19.5451 15.4433 20.1109 16.7968 20.1109 18.3723V20.177C20.1109 20.7499 19.9104 21.2369 19.5093 21.6379C19.1083 22.039 18.6213 22.2395 18.0484 22.2395H2.9234C2.35048 22.2395 1.86351 22.039 1.46246 21.6379C1.06142 21.2369 0.860901 20.7499 0.860901 20.177V18.3723C0.860901 16.7968 1.42666 15.4433 2.55817 14.3118C3.68968 13.1803 5.04319 12.6145 6.61871 12.6145C6.99111 12.6145 7.54254 12.7291 8.27301 12.9583C9.00348 13.1874 9.74111 13.302 10.4859 13.302C11.2307 13.302 11.9755 13.1874 12.7203 12.9583C13.4651 12.7291 14.0093 12.6145 14.3531 12.6145ZM18.7359 20.177V18.3723C18.7359 17.1692 18.3062 16.1379 17.4468 15.2786C16.5875 14.4192 15.5562 13.9895 14.3531 13.9895C14.1812 13.9895 13.7014 14.1041 12.9136 14.3333C12.1259 14.5624 11.3166 14.677 10.4859 14.677C9.65517 14.677 8.84593 14.5624 8.05817 14.3333C7.27041 14.1041 6.79059 13.9895 6.61871 13.9895C5.41559 13.9895 4.38434 14.4192 3.52496 15.2786C2.66559 16.1379 2.2359 17.1692 2.2359 18.3723V20.177C2.2359 20.3775 2.30035 20.5422 2.42926 20.6711C2.55817 20.8 2.72288 20.8645 2.9234 20.8645H18.0484C18.2489 20.8645 18.4136 20.8 18.5425 20.6711C18.6714 20.5422 18.7359 20.3775 18.7359 20.177ZM14.3746 9.62817C14.3746 9.62817 14.106 9.89673 13.5689 10.4338C13.0318 10.9709 12.0041 11.2395 10.4859 11.2395C8.96767 11.2395 7.67145 10.7024 6.59723 9.62817C5.52301 8.55396 4.9859 7.25773 4.9859 5.7395C4.9859 4.22127 5.52301 2.92505 6.59723 1.85083C7.67145 0.776611 8.96767 0.239502 10.4859 0.239502C12.0041 0.239502 13.3004 0.776611 14.3746 1.85083C15.4488 2.92505 15.9859 4.22127 15.9859 5.7395C15.9859 7.25773 15.4488 8.55396 14.3746 9.62817ZM13.4078 2.81763C13.4078 2.81763 13.2073 2.61711 12.8062 2.21606C12.4052 1.81502 11.6317 1.6145 10.4859 1.6145C9.34007 1.6145 8.36611 2.01554 7.56403 2.81763C6.76194 3.61971 6.3609 4.59367 6.3609 5.7395C6.3609 6.88533 6.76194 7.85929 7.56403 8.66138C8.36611 9.46346 9.34007 9.8645 10.4859 9.8645C11.6317 9.8645 12.6057 9.46346 13.4078 8.66138C14.2099 7.85929 14.6109 6.88533 14.6109 5.7395C14.6109 4.59367 14.2099 3.61971 13.4078 2.81763Z" fill="black"/>
</svg>
